<svg viewBox="0 0 25 25" fill="none" xmlns="http://www.w3.org/2000/svg">
  <path fill-rule="evenodd" clip-rule="evenodd" d="M21.4727 10.869C21.4727 13.3796 20.632 15.6907 19.2202 17.5309L24.6689 23.047C25.1104 23.4939 25.1104 24.2185 24.6689 24.6648C24.2277 25.1117 23.512 25.1117 23.0708 24.6648L17.6541 19.1817C15.7856 20.7772 13.3719 21.7381 10.7364 21.7381C4.80669 21.7381 0 16.8717 0 10.869C0 4.86637 4.80669 0 10.7364 0C16.666 0 21.4727 4.86637 21.4727 10.869ZM2.14716 10.869C2.14716 15.6712 5.99285 19.5644 10.7364 19.5644C15.4799 19.5644 19.3256 15.6712 19.3256 10.869C19.3256 6.0669 15.4799 2.17369 10.7364 2.17369C5.99285 2.17369 2.14716 6.0669 2.14716 10.869ZM10.7833 16.5099C13.9041 16.5099 16.434 13.9487 16.434 10.7894C16.434 7.62999 13.9041 5.06881 10.7833 5.06881C7.66248 5.06881 5.13257 7.62999 5.13257 10.7894C5.13257 13.9487 7.66248 16.5099 10.7833 16.5099Z" fill="white"/>
</svg>